{"title":"Maze.Runner-Scorch.Trials.2015.720p.x264.AAC-Olleh","uid":12674546,"size":3106644848,"categoryP":"video","categoryS":"movies","magnet":"?xt=urn:btih:fe2bb5a342b3df9e5f811e0d6e8bdaeef087dece&amp;dn=Maze.Runner-Scorch.Trials.2015.720p.x264.AAC-Olleh&amp;tr=udp%3A%2F%2Ftracker.leechers-paradise.org%3A6969&amp;tr=udp%3A%2F%2Fzer0day.ch%3A1337&amp;tr=udp%3A%2F%2Fopen.demonii.com%3A1337&amp;tr=udp%3A%2F%2Ftracker.coppersurfer.tk%3A6969&amp;tr=udp%3A%2F%2Fexodus.desync.com%3A6969","seeders":10,"leechers":5,"uploader":"xxxlavalxxx","files":2,"time":1446492933,"description":"http://extraimago.com/image/JBg\r\n \nhttp://www.imdb.com/title/tt4046784/\r\n\r\n\r\nAfter having escaped the Maze, the Gladers now face a new set of challenges on the open roads of a desolate landscape filled with unimaginable obstacles.\r\n\r\nDirector: Wes Ball\r\nWriters: T.S. Nowlin (screenplay), James Dashner (novel)\r\nStars: Dylan O'Brien, Kaya Scodelario, Thomas Brodie-Sangster\r\nGenres: Action | Sci-Fi | Thriller\r\nCountry: USA\r\nLanguage: English\r\n\r\n\r\nFormat                      : MPEG-4\r\nFormat profile              : Base Media\r\nCodec ID                    : isom\r\nFile size                   : 2.89 GiB\r\nDuration                    : 2h 11mn\r\nOverall bit rate            : 3 150 Kbps\r\nWriting application         : Lavf56.19.101\r\n\r\nVideo\r\nID                          : 1\r\nFormat                      : AVC\r\nFormat/Info                 : Advanced Video Codec\r\nFormat profile              :   \r\nFormat settings, CABAC      : Yes\r\nFormat settings, ReFrames   : 4 frames\r\nCodec ID                    : avc1\r\nCodec ID/Info               : Advanced Video Coding\r\nDuration                    : 2h 11mn\r\nBit rate                    : 3 000 Kbps\r\nWidth                       : 1 280 pixels\r\nHeight                      : 720 pixels\r\nDisplay aspect ratio        : 16:9\r\nFrame rate mode             : Variable\r\nFrame rate                  : 27.180 fps\r\nMinimum frame rate          : 5.994 fps\r\nMaximum frame rate          : 29.970 fps\r\nColor space                 : YUV\r\nChroma subsampling          : 4:2:0\r\nBit depth                   : 8 bits\r\nScan type                   : Progressive\r\nBits/(Pixel*Frame)          : 0.120\r\nStream size                 : 2.74 GiB (95%)\r\nWriting library             : x264 core 142 r2431 ac76440\r\nEncoding settings           : cabac=1 / ref=3 / deblock=1:0:0 / analyse=0x3:0x113 / me=hex / subme=7 / psy=1 / psy_rd=1.00:0.00 / mixed_ref=1 / me_range=16 / chroma_me=1 / trellis=1 / 8x8dct=1 / cqm=0 / deadzone=21,11 / fast_pskip=1 / chroma_qp_offset=-2 / threads=16 / lookahead_threads=2 / sliced_threads=0 / nr=0 / decimate=1 / interlaced=0 / bluray_compat=0 / constrained_intra=0 / bframes=3 / b_pyramid=2 / b_adapt=2 / b_bias=0 / direct=1 / weightb=1 / open_gop=0 / weightp=2 / keyint=250 / keyint_min=25 / scenecut=40 / intra_refresh=0 / rc_lookahead=40 / rc=abr / mbtree=1 / bitrate=3000 / ratetol=1.0 / qcomp=0.60 / qpmin=0 / qpmax=69 / qpstep=4 / ip_ratio=1.41 / aq=1:1.00\r\n\r\nAudio\r\nID                          : 2\r\nFormat                      : AAC\r\nFormat/Info                 : Advanced Audio Codec\r\nFormat profile              : LC\r\nCodec ID                    : 40\r\nDuration                    : 2h 11mn\r\nDuration_FirstFrame         : 11ms\r\nBit rate mode               : Constant\r\nBit rate                    : 160 Kbps\r\nChannel(s)                  : 2 channels\r\nChannel positions           : Front: L R\r\nSampling rate               : 48.0 KHz\r\nCompression mode            : Lossy\r\nStream size                 : 151 MiB (5%)\r\nTitle                       : English\r\n\r\n \nhttp://extraimago.com/image/JB5 \nhttp://extraimago.com/image/JBD \nhttp://extraimago.com/image/JBF \nhttp://extraimago.com/image/JBH \nhttp://extraimago.com/image/JBu \nhttp://extraimago.com/image/JBv","torrent":{"xt":"urn:btih:fe2bb5a342b3df9e5f811e0d6e8bdaeef087dece","amp;dn":"Maze.Runner-Scorch.Trials.2015.720p.x264.AAC-Olleh","amp;tr":["udp%3A%2F%2Ftracker.leechers-paradise.org%3A6969","udp%3A%2F%2Fzer0day.ch%3A1337","udp%3A%2F%2Fopen.demonii.com%3A1337","udp%3A%2F%2Ftracker.coppersurfer.tk%3A6969","udp%3A%2F%2Fexodus.desync.com%3A6969"],"infoHash":"fe2bb5a342b3df9e5f811e0d6e8bdaeef087dece","infoHashBuffer":{"type":"Buffer","data":[254,43,181,163,66,179,223,158,95,129,30,13,110,139,218,238,240,135,222,206]},"announce":[],"urlList":[]}}